<?xml version="1.0" encoding="utf-8"?>
<!-- Generator: Adobe Illustrator 24.0.2, SVG Export Plug-In . SVG Version: 6.00 Build 0)  -->
<svg version="1.1" id="Layer_1" xmlns="http://www.w3.org/2000/svg" xmlns:xlink="http://www.w3.org/1999/xlink" x="0px" y="0px"
	 viewBox="0 0 480 480" style="enable-background:new 0 0 480 480;" xml:space="preserve">
<style type="text/css">
	.st0{fill:#03A9F4;}
	.st1{fill:#020F16;}
</style>
<path class="st0" d="M8,59.6C8,31.1,31.1,8,59.6,8h360.9C448.9,8,472,31.1,472,59.6v360.9c0,28.5-23.1,51.6-51.6,51.6H59.6
	C31.1,472,8,448.9,8,420.4V59.6z"/>
<path class="st1" d="M188.7,177.8h-25.8v57.1h25.4c7.1,0,12.5-2.3,16.4-6.9c3.9-4.6,5.8-11.3,5.8-20.1c0-9.2-2-16.4-5.9-21.8
	C200.6,180.6,195.3,177.9,188.7,177.8z"/>
<path class="st1" d="M46.7,46.7v386.7h386.7V46.7H46.7z M231.8,250.2c-10.6,10.4-25.4,15.6-44.3,15.6h-24.7v64.4h-37V147h62.4
	c18.1,0,32.6,5.6,43.4,16.9c10.8,11.2,16.2,25.8,16.2,43.8S242.5,239.8,231.8,250.2z M351.9,321.7c-9.1,7.4-21.2,11.1-36,11.1
	c-10,0-18.8-1.9-26.4-5.9c-7.6-3.9-13.6-9.3-17.9-16.3S265,296.1,265,288h33.9c0.2,6.2,1.6,10.9,4.3,14c2.7,3.1,7.2,4.7,13.4,4.7
	c9.6,0,14.3-4.3,14.3-13c0-3-1.4-5.8-4.3-8.4c-2.9-2.6-9.3-6-19.3-10.4c-14.7-6-24.8-12.1-30.3-18.5c-5.5-6.4-8.2-14.3-8.2-23.8
	c0-11.9,4.3-21.8,12.9-29.5c8.6-7.8,20-11.6,34.2-11.6c14.9,0,26.9,3.9,35.9,11.6c9,7.7,13.5,18.1,13.5,31.1h-35.6
	c0-11.1-4.6-16.6-13.8-16.6c-3.8,0-6.9,1.2-9.3,3.5s-3.6,5.6-3.6,9.8c0,3,1.3,5.7,4,8c2.7,2.3,9,5.6,19,9.9
	c14.5,5.4,24.8,11.4,30.8,17.9c6,6.6,9,15.1,9,25.6C365.6,304.5,361,314.3,351.9,321.7z"/>
</svg>
