<?xml version="1.0" encoding="utf-8"?>
<!-- Generator: Adobe Illustrator 23.0.3, SVG Export Plug-In . SVG Version: 6.00 Build 0)  -->
<svg version="1.1" id="Layer_1" xmlns="http://www.w3.org/2000/svg" xmlns:xlink="http://www.w3.org/1999/xlink" x="0px" y="0px"
	 viewBox="0 0 512 512" style="enable-background:new 0 0 512 512;" xml:space="preserve">
<style type="text/css">
	.st0{fill:none;stroke:#1D1D1B;stroke-width:15;stroke-miterlimit:10;}
	.st1{fill:#1D1D1B;}
	.st2{fill:#006EBA;stroke:#1D1D1B;stroke-width:18;stroke-miterlimit:10;}
	.st3{fill:#FFFFFF;stroke:#1D1D1B;stroke-width:15;stroke-miterlimit:10;}
</style>
<path class="st2" d="M451,35.46c-0.6,7.34-1.2,14.54-1.8,21.67c-1.2,13.6-2.4,27.14-3.6,40.68c-1.73,20.54-3.53,41.01-5.27,61.55
	l-3.8,43.82c-1.27,15.14-2.67,30.34-4,45.48c-1.33,15.81-2.67,31.61-4.07,47.42c-1.33,15.41-2.67,30.74-4,46.15
	c-1.4,16.54-2.8,33.01-4.27,49.55c-1.07,12.67-2.2,25.41-3.27,38.08c-0.13,1.53-0.67,2.13-2.13,2.53
	C362.3,447,309.89,461.74,257.4,476.34c-0.87,0.27-1.93,0.27-2.87,0c-52.22-14.61-104.5-29.21-156.72-43.82
	c-1.8-0.47-2.6-1.13-2.73-3.13c-2-24.07-4.13-48.08-6.2-72.09c-2.2-25.54-4.47-51.08-6.67-76.69c-2.07-23.27-4-46.62-6-69.96
	c-2.2-25.54-4.47-51.15-6.74-76.69c-2-23.14-3.93-46.35-5.94-69.56c-0.8-9.6-1.67-19.21-2.53-28.94H451z"/>
<polygon class="st3" points="134.64,119.48 377.39,119.48 373.75,168.52 276.29,216.34 368.91,216.34 356.2,364.65 256.01,392.5 
	155.52,364.35 149.47,289.29 200.02,289.29 202.74,328.33 255.71,342.86 309.59,328.03 314.13,265.98 147.35,265.98 142.81,215.13 
	236.34,168.52 138.27,168.52 "/>
</svg>
